<svg width="24" height="24" viewBox="0 0 24 24" fill="none" xmlns="http://www.w3.org/2000/svg">
<path d="M16.414 12L17.828 10.586C18.0102 10.3974 18.111 10.1448 18.1087 9.8826C18.1064 9.6204 18.0012 9.36959 17.8158 9.18418C17.6304 8.99877 17.3796 8.8936 17.1174 8.89133C16.8552 8.88905 16.6026 8.98984 16.414 9.172L15 10.586L13.586 9.172C13.4938 9.07649 13.3834 9.00031 13.2614 8.9479C13.1394 8.89549 13.0082 8.8679 12.8754 8.86675C12.7426 8.8656 12.6109 8.8909 12.488 8.94118C12.3652 8.99146 12.2535 9.06571 12.1596 9.15961C12.0657 9.2535 11.9915 9.36515 11.9412 9.48805C11.8909 9.61094 11.8656 9.74262 11.8668 9.8754C11.8679 10.0082 11.8955 10.1394 11.9479 10.2614C12.0003 10.3834 12.0765 10.4938 12.172 10.586L13.586 12L12.172 13.414C12.0765 13.5062 12.0003 13.6166 11.9479 13.7386C11.8955 13.8606 11.8679 13.9918 11.8668 14.1246C11.8656 14.2574 11.8909 14.3891 11.9412 14.512C11.9915 14.6349 12.0657 14.7465 12.1596 14.8404C12.2535 14.9343 12.3652 15.0085 12.488 15.0588C12.6109 15.1091 12.7426 15.1344 12.8754 15.1333C13.0082 15.1321 13.1394 15.1045 13.2614 15.0521C13.3834 14.9997 13.4938 14.9235 13.586 14.828L15 13.414L16.414 14.828C16.5062 14.9235 16.6166 14.9997 16.7386 15.0521C16.8606 15.1045 16.9918 15.1321 17.1246 15.1333C17.2574 15.1344 17.3891 15.1091 17.512 15.0588C17.6349 15.0085 17.7465 14.9343 17.8404 14.8404C17.9343 14.7465 18.0085 14.6349 18.0588 14.512C18.1091 14.3891 18.1344 14.2574 18.1333 14.1246C18.1321 13.9918 18.1045 13.8606 18.0521 13.7386C17.9997 13.6166 17.9235 13.5062 17.828 13.414L16.414 12ZM9.828 5H20C20.5304 5 21.0391 5.21071 21.4142 5.58579C21.7893 5.96086 22 6.46957 22 7V17C22 17.5304 21.7893 18.0391 21.4142 18.4142C21.0391 18.7893 20.5304 19 20 19H9.828C9.29761 18.9999 8.78899 18.7891 8.414 18.414L2.707 12.707C2.51953 12.5195 2.41422 12.2652 2.41422 12C2.41422 11.7348 2.51953 11.4805 2.707 11.293L8.414 5.586C8.78899 5.2109 9.29761 5.00011 9.828 5Z" fill="white"/>
</svg>
